<?xml version="1.0" standalone="no"?>
<!DOCTYPE svg PUBLIC "-//W3C//DTD SVG 20010904//EN"
 "http://www.w3.org/TR/2001/REC-SVG-20010904/DTD/svg10.dtd">
<svg version="1.0" xmlns="http://www.w3.org/2000/svg"
 width="700.000000pt" height="700.000000pt" viewBox="0 0 700.000000 700.000000"
 preserveAspectRatio="xMidYMid meet">
<metadata>
Created by potrace 1.11, written by Peter Selinger 2001-2013
</metadata>
<g transform="translate(0.000000,700.000000) scale(0.100000,-0.100000)"
fill="#000000" stroke="none">
<path d="M4270 6314 c-25 -14 -57 -42 -71 -62 -18 -25 -314 -900 -908 -2682
-724 -2173 -881 -2654 -881 -2698 0 -119 94 -212 215 -212 85 0 159 46 197
125 9 17 410 1215 893 2663 848 2546 877 2636 873 2696 -3 49 -10 71 -33 103
-65 91 -190 120 -285 67z"/>
<path d="M2110 5237 c-27 -8 -216 -191 -833 -806 -537 -536 -804 -809 -817
-837 -26 -53 -26 -135 0 -188 13 -28 280 -301 817 -837 856 -853 817 -819 917
-819 153 0 258 176 189 315 -8 16 -331 346 -716 733 l-702 702 702 703 c385
386 708 716 716 732 56 112 3 250 -115 300 -42 17 -106 18 -158 2z"/>
<path d="M4730 5234 c-116 -50 -168 -188 -113 -299 8 -16 331 -346 716 -732
l702 -703 -702 -702 c-385 -387 -708 -717 -716 -733 -69 -139 36 -315 189
-315 100 0 61 -34 917 819 537 536 804 809 817 837 12 25 20 61 20 94 0 33 -8
69 -20 94 -13 28 -280 301 -817 837 -691 689 -804 797 -839 807 -55 16 -112
14 -154 -4z"/>
</g>
</svg>
