<svg width="24" height="24" fill="none" xmlns="http://www.w3.org/2000/svg"><g clip-path="url(#clip0)"><path fill-rule="evenodd" clip-rule="evenodd" d="M14.242 3.03a1 1 0 01.728 1.213l-4 16a1 1 0 11-1.94-.485l4-16a1 1 0 011.213-.728zM6.707 6.293a1 1 0 010 1.414L2.414 12l4.293 4.293a1 1 0 11-1.414 1.414l-5-5a1 1 0 010-1.414l5-5a1 1 0 011.414 0zm10.586 0a1 1 0 011.414 0l5 5a1 1 0 010 1.414l-5 5a1 1 0 01-1.414-1.414L21.586 12l-4.293-4.293a1 1 0 010-1.414z" fill="#293644"/></g><defs><clipPath id="clip0"><path fill="#fff" d="M0 0h24v24H0z"/></clipPath></defs></svg>